<svg width="1200" height="630" viewBox="0 0 1200 630" fill="none" xmlns="http://www.w3.org/2000/svg">
  <rect width="1200" height="630" fill="#15151A"/>
  <rect width="1200" height="630" fill="url(#amberGlow)"/>
  <rect width="1200" height="630" fill="url(#steelGlow)"/>

  <g opacity="0.32">
    <path d="M0 106H1200M0 212H1200M0 318H1200M0 424H1200M0 530H1200" stroke="#2A2A33"/>
    <path d="M126 0V630M252 0V630M378 0V630M504 0V630M630 0V630M756 0V630M882 0V630M1008 0V630M1134 0V630" stroke="#2A2A33"/>
  </g>

  <g transform="translate(76 72)">
    <path d="M0 0H1048V486" stroke="#353541" stroke-width="2"/>
    <path d="M0 0H286" stroke="#E8912D" stroke-width="5"/>
  </g>

  <g transform="translate(82 94)">
    <circle cx="54" cy="54" r="44" stroke="#E8912D" stroke-width="7"/>
    <circle cx="54" cy="54" r="12" fill="#E8912D"/>
    <path d="M54 4V24M54 84V104M4 54H24M84 54H104" stroke="#E8912D" stroke-width="6" stroke-linecap="round"/>
    <path d="M18 18L32 32M76 76L90 90M18 90L32 76M76 32L90 18" stroke="#8A8A8A" stroke-width="4" stroke-linecap="round"/>
  </g>

  <text x="218" y="128" fill="#FAFAFD" font-family="Arial" font-size="34" font-weight="800">Nauti-Labs</text>
  <text x="218" y="163" fill="#8A8A8A" font-family="Courier" font-size="17" font-weight="700" letter-spacing="2">MONT BELVIEU · TX</text>

  <g transform="translate(82 222)">
    <text x="0" y="0" fill="#FAFAFD" font-family="Arial" font-size="72" font-weight="800">Maritime ops.</text>
    <text x="0" y="76" fill="#FAFAFD" font-family="Arial" font-size="72" font-weight="800">Crypto compliance.</text>
    <text x="0" y="152" fill="#E8912D" font-family="Arial" font-size="72" font-weight="700" font-style="italic">Custom AI.</text>
  </g>

  <text x="82" y="468" fill="#B8B8C0" font-family="Arial" font-size="28" font-weight="500">One company, three disciplines. Built by someone who has worked the operation.</text>

  <g transform="translate(82 520)">
    <rect width="250" height="58" rx="8" fill="#1F1F27" stroke="#353541"/>
    <text x="20" y="24" fill="#E8912D" font-family="Courier" font-size="13" font-weight="700" letter-spacing="2">MARITIME</text>
    <text x="20" y="45" fill="#ECECF0" font-family="Arial" font-size="20" font-weight="700">Triton workflows</text>
  </g>

  <g transform="translate(354 520)">
    <rect width="250" height="58" rx="8" fill="#1F1F27" stroke="#353541"/>
    <text x="20" y="24" fill="#E8912D" font-family="Courier" font-size="13" font-weight="700" letter-spacing="2">CRYPTO</text>
    <text x="20" y="45" fill="#ECECF0" font-family="Arial" font-size="20" font-weight="700">SB 1244 reports</text>
  </g>

  <g transform="translate(626 520)">
    <rect width="250" height="58" rx="8" fill="#1F1F27" stroke="#353541"/>
    <text x="20" y="24" fill="#E8912D" font-family="Courier" font-size="13" font-weight="700" letter-spacing="2">AI</text>
    <text x="20" y="45" fill="#ECECF0" font-family="Arial" font-size="20" font-weight="700">Custom builds</text>
  </g>

  <g transform="translate(936 162)" opacity="0.92">
    <circle cx="80" cy="80" r="74" stroke="#353541" stroke-width="2"/>
    <circle cx="80" cy="80" r="46" stroke="#2A2A33" stroke-width="2"/>
    <path d="M80 7V40M80 120V153M7 80H40M120 80H153" stroke="#E8912D" stroke-width="5" stroke-linecap="round"/>
    <path d="M29 29L52 52M108 108L131 131M29 131L52 108M108 52L131 29" stroke="#8A8A8A" stroke-width="3" stroke-linecap="round"/>
    <circle cx="80" cy="80" r="14" fill="#E8912D"/>
  </g>

  <text x="936" y="556" fill="#7A7A85" font-family="Courier" font-size="22" font-weight="700">nauti-labs.com</text>

  <defs>
    <radialGradient id="amberGlow" cx="0" cy="0" r="1" gradientUnits="userSpaceOnUse" gradientTransform="translate(700 -20) rotate(120) scale(760 520)">
      <stop stop-color="#E8912D" stop-opacity="0.14"/>
      <stop offset="0.62" stop-color="#15151A" stop-opacity="0.16"/>
      <stop offset="1" stop-color="#15151A" stop-opacity="0"/>
    </radialGradient>
    <radialGradient id="steelGlow" cx="0" cy="0" r="1" gradientUnits="userSpaceOnUse" gradientTransform="translate(1160 600) rotate(204) scale(620 420)">
      <stop stop-color="#8A8A8A" stop-opacity="0.10"/>
      <stop offset="1" stop-color="#15151A" stop-opacity="0"/>
    </radialGradient>
  </defs>
</svg>
