<svg width="1200" height="630" viewBox="0 0 1200 630" fill="none" xmlns="http://www.w3.org/2000/svg">
  <defs>
    <linearGradient id="bg" x1="0" y1="0" x2="1200" y2="630" gradientUnits="userSpaceOnUse">
      <stop stop-color="#061116"/>
      <stop offset="0.48" stop-color="#081016"/>
      <stop offset="1" stop-color="#15130D"/>
    </linearGradient>
    <linearGradient id="panel" x1="666" y1="84" x2="1094" y2="558" gradientUnits="userSpaceOnUse">
      <stop stop-color="#13262A"/>
      <stop offset="1" stop-color="#0B1118"/>
    </linearGradient>
    <linearGradient id="line" x1="70" y1="392" x2="602" y2="392" gradientUnits="userSpaceOnUse">
      <stop stop-color="#77E7FF"/>
      <stop offset="0.5" stop-color="#F3B24A"/>
      <stop offset="1" stop-color="#86DC73"/>
    </linearGradient>
    <filter id="shadow" x="-20%" y="-20%" width="140%" height="150%" color-interpolation-filters="sRGB">
      <feDropShadow dx="0" dy="26" stdDeviation="30" flood-color="#000000" flood-opacity="0.45"/>
    </filter>
  </defs>

  <rect width="1200" height="630" fill="url(#bg)"/>
  <path d="M0 92H1200M0 190H1200M0 288H1200M0 386H1200M0 484H1200M0 582H1200M138 0V630M298 0V630M458 0V630M618 0V630M778 0V630M938 0V630M1098 0V630" stroke="#2A4746" stroke-width="1" opacity="0.16"/>
  <path d="M-60 526C88 482 230 478 390 522C540 564 680 570 814 492C950 412 1044 338 1262 376" stroke="#77E7FF" stroke-width="2" opacity="0.18"/>
  <path d="M-50 136C128 174 272 154 408 104C560 48 712 48 862 94C1016 142 1110 126 1254 64" stroke="#F3B24A" stroke-width="2" opacity="0.13"/>

  <g transform="translate(72 62)">
    <rect x="0" y="0" width="66" height="66" rx="18" fill="#0D1B20" stroke="#335D5E" stroke-width="2"/>
    <path d="M17 36L33 21L49 36V51H17V36Z" stroke="#F3B24A" stroke-width="4" stroke-linejoin="round"/>
    <path d="M25 41H41" stroke="#86DC73" stroke-width="4" stroke-linecap="round"/>
    <circle cx="50" cy="17" r="6" fill="#77E7FF"/>
    <text x="88" y="28" fill="#F5F8F2" font-family="Arial, Helvetica, sans-serif" font-size="25" font-weight="900" letter-spacing="5">NAUTI-LABS</text>
    <text x="88" y="58" fill="#86DC73" font-family="Arial, Helvetica, sans-serif" font-size="23" font-weight="900" letter-spacing="4">NEIGHBORS</text>
    <rect x="390" y="11" width="178" height="40" rx="20" fill="#101F23" stroke="#2E5556" stroke-width="1.5"/>
    <text x="417" y="37" fill="#CFE2DF" font-family="Arial, Helvetica, sans-serif" font-size="16" font-weight="800" letter-spacing="1.7">LOCAL PROS</text>
  </g>

  <g transform="translate(72 155)">
    <text x="0" y="76" fill="#F7F8F2" font-family="Arial, Helvetica, sans-serif" font-size="76" font-weight="900">Make your</text>
    <text x="0" y="158" fill="#F7F8F2" font-family="Arial, Helvetica, sans-serif" font-size="76" font-weight="900">business look</text>
    <text x="0" y="240" fill="#F7F8F2" font-family="Arial, Helvetica, sans-serif" font-size="76" font-weight="900">trusted online.</text>
    <rect x="0" y="266" width="526" height="8" rx="4" fill="url(#line)"/>
    <text x="0" y="326" fill="#C9DAD6" font-family="Arial, Helvetica, sans-serif" font-size="29" font-weight="800">Websites, reviews, AI follow-up,</text>
    <text x="0" y="363" fill="#C9DAD6" font-family="Arial, Helvetica, sans-serif" font-size="29" font-weight="800">and security cleanup for local crews.</text>
  </g>

  <g transform="translate(72 540)">
    <rect width="166" height="46" rx="23" fill="#13252A" stroke="#315D5D" stroke-width="1.5"/>
    <text x="30" y="30" fill="#F5F8F2" font-family="Arial, Helvetica, sans-serif" font-size="17" font-weight="900">Better site</text>
    <rect x="184" width="152" height="46" rx="23" fill="#13252A" stroke="#315D5D" stroke-width="1.5"/>
    <text x="205" y="30" fill="#F5F8F2" font-family="Arial, Helvetica, sans-serif" font-size="17" font-weight="900">More reviews</text>
    <rect x="354" width="138" height="46" rx="23" fill="#13252A" stroke="#315D5D" stroke-width="1.5"/>
    <text x="380" y="30" fill="#F5F8F2" font-family="Arial, Helvetica, sans-serif" font-size="17" font-weight="900">Fast replies</text>
  </g>

  <g transform="translate(652 72)" filter="url(#shadow)">
    <rect x="0" y="0" width="486" height="488" rx="34" fill="url(#panel)" stroke="#315D5D" stroke-width="2"/>
    <rect x="28" y="28" width="430" height="58" rx="18" fill="#0A141A" stroke="#24484C" stroke-width="1.5"/>
    <circle cx="58" cy="57" r="8" fill="#F06458"/>
    <circle cx="84" cy="57" r="8" fill="#F3B24A"/>
    <circle cx="110" cy="57" r="8" fill="#86DC73"/>
    <text x="140" y="64" fill="#DCEAE6" font-family="Arial, Helvetica, sans-serif" font-size="18" font-weight="900" letter-spacing="1.3">LOCAL PRO SITE CHECK</text>

    <g transform="translate(38 116)">
      <rect width="410" height="132" rx="24" fill="#0E1A20" stroke="#254D50" stroke-width="1.5"/>
      <text x="28" y="39" fill="#91AAA8" font-family="Arial, Helvetica, sans-serif" font-size="16" font-weight="900" letter-spacing="1.6">FIRST IMPRESSION</text>
      <text x="28" y="82" fill="#F7F8F2" font-family="Arial, Helvetica, sans-serif" font-size="34" font-weight="900">Looks ready</text>
      <text x="28" y="116" fill="#F7F8F2" font-family="Arial, Helvetica, sans-serif" font-size="34" font-weight="900">before they call.</text>
      <circle cx="346" cy="66" r="42" fill="#13272B" stroke="#86DC73" stroke-width="8"/>
      <text x="318" y="77" fill="#F7F8F2" font-family="Arial, Helvetica, sans-serif" font-size="30" font-weight="900">96</text>
    </g>

    <g transform="translate(38 276)">
      <rect width="190" height="56" rx="16" fill="#0E1A20" stroke="#254D50" stroke-width="1.5"/>
      <circle cx="28" cy="28" r="11" fill="#86DC73"/>
      <path d="M22 28L27 33L35 23" stroke="#071017" stroke-width="3" stroke-linecap="round" stroke-linejoin="round"/>
      <text x="52" y="35" fill="#F7F8F2" font-family="Arial, Helvetica, sans-serif" font-size="19" font-weight="900">Clean website</text>

      <rect x="220" width="190" height="56" rx="16" fill="#0E1A20" stroke="#254D50" stroke-width="1.5"/>
      <circle cx="248" cy="28" r="11" fill="#77E7FF"/>
      <path d="M244 24H253M244 29H256M244 34H252" stroke="#071017" stroke-width="3" stroke-linecap="round"/>
      <text x="272" y="35" fill="#F7F8F2" font-family="Arial, Helvetica, sans-serif" font-size="19" font-weight="900">Fast replies</text>

      <rect y="78" width="190" height="56" rx="16" fill="#0E1A20" stroke="#254D50" stroke-width="1.5"/>
      <circle cx="28" cy="106" r="11" fill="#F3B24A"/>
      <path d="M22 106H34M28 100V112" stroke="#071017" stroke-width="3" stroke-linecap="round"/>
      <text x="52" y="113" fill="#F7F8F2" font-family="Arial, Helvetica, sans-serif" font-size="19" font-weight="900">More reviews</text>

      <rect x="220" y="78" width="190" height="56" rx="16" fill="#0E1A20" stroke="#254D50" stroke-width="1.5"/>
      <circle cx="248" cy="106" r="11" fill="#86DC73"/>
      <path d="M248 99L256 103V110C256 115 252 118 248 120C244 118 240 115 240 110V103L248 99Z" fill="#071017"/>
      <text x="272" y="113" fill="#F7F8F2" font-family="Arial, Helvetica, sans-serif" font-size="19" font-weight="900">Safer setup</text>
    </g>

    <g transform="translate(38 426)">
      <text x="0" y="0" fill="#91AAA8" font-family="Arial, Helvetica, sans-serif" font-size="17" font-weight="900" letter-spacing="1.4">NO CALL-CENTER HANDOFF</text>
      <text x="0" y="34" fill="#F7F8F2" font-family="Arial, Helvetica, sans-serif" font-size="24" font-weight="900">nauti-labs.com/neighbors</text>
    </g>
  </g>
</svg>
